# 3ds Max Wavefront OBJ Exporter v0.97b - (c)2007 guruware
# File Created: 07.01.2021 12:47:53

mtllib set71800_floor.mtl

#
# object set7G1800
#

v  -3.7289 -0.0040 2.0993
v  -3.7289 -0.0040 -2.0993
v  3.7289 -0.0040 -2.0993
v  3.7289 -0.0040 2.0993
v  -3.7289 0.0001 2.0993
v  3.7289 0.0001 2.0993
v  3.7289 0.0001 -2.0993
v  -3.7289 0.0001 -2.0993
# 8 vertices

vn 0.0000 -1.0000 -0.0000
vn 0.0000 1.0000 -0.0000
vn -0.0000 0.0000 1.0000
vn 1.0000 0.0000 -0.0000
vn -0.0000 0.0000 -1.0000
vn -1.0000 0.0000 -0.0000
# 6 vertex normals

vt 0.1555 0.4828 0.0000
vt 0.1555 0.4711 0.0000
vt 0.1769 0.4711 0.0000
vt 0.1769 0.4828 0.0000
vt 0.1555 0.4590 0.0000
vt 0.1769 0.4590 0.0000
vt 0.1769 0.4707 0.0000
vt 0.1555 0.4707 0.0000
vt 0.1555 0.4709 0.0000
vt 0.1769 0.4709 0.0000
vt 0.1771 0.4590 0.0000
vt 0.1771 0.4707 0.0000
vt 0.1555 0.4708 0.0000
vt 0.1769 0.4708 0.0000
vt 0.1770 0.4590 0.0000
vt 0.1770 0.4707 0.0000
# 16 texture coords

o set7G1800
g set7G1800
usemtl set7G1800
s 2
f 1/1/1 2/2/1 3/3/1 
f 3/3/1 4/4/1 1/1/1 
s 4
f 5/5/2 6/6/2 7/7/2 
f 7/7/2 8/8/2 5/5/2 
s 8
f 1/9/3 4/10/3 6/10/3 
f 6/10/3 5/9/3 1/9/3 
s 16
f 4/11/4 3/12/4 7/12/4 
f 7/12/4 6/11/4 4/11/4 
s 32
f 3/13/5 2/14/5 8/14/5 
f 8/14/5 7/13/5 3/13/5 
s 64
f 2/15/6 1/16/6 5/16/6 
f 5/16/6 8/15/6 2/15/6 
# 12 faces

