{"asset":{"version":"2.0","generator":"babylon.js glTF exporter for 3dsmax 2018 v20201204.1"},"scene":0,"scenes":[{"nodes":[0,1]}],"nodes":[{"mesh":0,"rotation":[0.0,0.0,1.0,0.0],"scale":[1.0,-1.0,1.0],"name":"set1"},{"name":"Default light"}],"meshes":[{"primitives":[{"attributes":{"POSITION":1,"NORMAL":2,"TEXCOORD_0":3},"indices":0,"material":0}],"name":"set1"}],"accessors":[{"bufferView":0,"componentType":5123,"count":3582,"type":"SCALAR","name":"accessorIndices"},{"bufferView":1,"componentType":5126,"count":3582,"max":[0.0101752393,0.0508076176,0.0102819195],"min":[-0.0101752393,0.0,-0.0102819195],"type":"VEC3","name":"accessorPositions"},{"bufferView":1,"byteOffset":42984,"componentType":5126,"count":3582,"type":"VEC3","name":"accessorNormals"},{"bufferView":2,"componentType":5126,"count":3582,"type":"VEC2","name":"accessorUVs"}],"bufferViews":[{"buffer":0,"byteLength":7164,"name":"bufferViewScalar"},{"buffer":0,"byteOffset":7164,"byteLength":85968,"byteStride":12,"name":"bufferViewFloatVec3"},{"buffer":0,"byteOffset":93132,"byteLength":28656,"byteStride":8,"name":"bufferViewFloatVec2"}],"buffers":[{"uri":"set1.bin","byteLength":121788}],"materials":[{"pbrMetallicRoughness":{"baseColorTexture":{"index":0},"metallicFactor":0.0,"roughnessFactor":0.450053632},"name":"01 - Default"}],"textures":[{"sampler":0,"source":0,"name":"tex_set1a.jpg"}],"images":[{"uri":"./tex_set1a.jpg"}],"samplers":[{"magFilter":9729,"minFilter":9987}]}